<svg width="1059" height="383" viewBox="0 0 1059 383" fill="none" xmlns="http://www.w3.org/2000/svg">
<path d="M1008.2 179.5C1011.8 179.5 1014.97 179 1017.7 178C1020.43 177 1022.73 175.6 1024.6 173.8C1026.47 172 1027.87 169.867 1028.8 167.4C1029.73 164.867 1030.2 162.1 1030.2 159.1C1030.2 152.9 1028.3 147.967 1024.5 144.3C1020.77 140.633 1015.33 138.8 1008.2 138.8C1001 138.8 995.5 140.633 991.7 144.3C987.967 147.967 986.1 152.9 986.1 159.1C986.1 162.1 986.567 164.867 987.5 167.4C988.5 169.867 989.933 172 991.8 173.8C993.667 175.6 995.967 177 998.7 178C1001.43 179 1004.6 179.5 1008.2 179.5ZM1040.3 234.5C1040.3 232.033 1039.6 230.033 1038.2 228.5C1036.8 226.967 1034.9 225.767 1032.5 224.9C1030.17 224.033 1027.43 223.433 1024.3 223.1C1021.17 222.7 1017.83 222.4 1014.3 222.2C1010.83 222 1007.3 221.8 1003.7 221.6C1000.1 221.4 996.633 221.067 993.3 220.6C989.567 222.333 986.5 224.533 984.1 227.2C981.767 229.8 980.6 232.867 980.6 236.4C980.6 238.667 981.167 240.767 982.3 242.7C983.5 244.7 985.3 246.4 987.7 247.8C990.1 249.267 993.1 250.4 996.7 251.2C1000.37 252.067 1004.67 252.5 1009.6 252.5C1014.4 252.5 1018.7 252.067 1022.5 251.2C1026.3 250.333 1029.5 249.1 1032.1 247.5C1034.77 245.9 1036.8 244 1038.2 241.8C1039.6 239.6 1040.3 237.167 1040.3 234.5ZM1058.4 131.7V138.3C1058.4 140.5 1057 141.9 1054.2 142.5L1042.7 144C1044.97 148.4 1046.1 153.267 1046.1 158.6C1046.1 163.533 1045.13 168.033 1043.2 172.1C1041.33 176.1 1038.73 179.533 1035.4 182.4C1032.07 185.267 1028.07 187.467 1023.4 189C1018.73 190.533 1013.67 191.3 1008.2 191.3C1003.47 191.3 999 190.733 994.8 189.6C992.667 190.933 991.033 192.367 989.9 193.9C988.767 195.367 988.2 196.867 988.2 198.4C988.2 200.8 989.167 202.633 991.1 203.9C993.1 205.1 995.7 205.967 998.9 206.5C1002.1 207.033 1005.73 207.367 1009.8 207.5C1013.93 207.633 1018.13 207.867 1022.4 208.2C1026.73 208.467 1030.93 208.967 1035 209.7C1039.13 210.433 1042.8 211.633 1046 213.3C1049.2 214.967 1051.77 217.267 1053.7 220.2C1055.7 223.133 1056.7 226.933 1056.7 231.6C1056.7 235.933 1055.6 240.133 1053.4 244.2C1051.27 248.267 1048.17 251.867 1044.1 255C1040.03 258.2 1035.03 260.733 1029.1 262.6C1023.23 264.533 1016.6 265.5 1009.2 265.5C1001.8 265.5 995.333 264.767 989.8 263.3C984.267 261.833 979.667 259.867 976 257.4C972.333 254.933 969.567 252.067 967.7 248.8C965.9 245.6 965 242.233 965 238.7C965 233.7 966.567 229.467 969.7 226C972.833 222.533 977.133 219.767 982.6 217.7C979.6 216.367 977.2 214.6 975.4 212.4C973.667 210.133 972.8 207.1 972.8 203.3C972.8 201.833 973.067 200.333 973.6 198.8C974.133 197.2 974.933 195.633 976 194.1C977.133 192.5 978.5 191 980.1 189.6C981.7 188.2 983.567 186.967 985.7 185.9C980.7 183.1 976.8 179.4 974 174.8C971.2 170.133 969.8 164.733 969.8 158.6C969.8 153.667 970.733 149.2 972.6 145.2C974.533 141.133 977.2 137.7 980.6 134.9C984 132.033 988.033 129.833 992.7 128.3C997.433 126.767 1002.6 126 1008.2 126C1012.6 126 1016.7 126.5 1020.5 127.5C1024.3 128.433 1027.77 129.833 1030.9 131.7H1058.4Z" fill="#059669"/>
<path d="M885.8 178.3C888 175.833 890.333 173.6 892.8 171.6C895.267 169.6 897.867 167.9 900.6 166.5C903.4 165.033 906.333 163.933 909.4 163.2C912.533 162.4 915.9 162 919.5 162C925.033 162 929.9 162.933 934.1 164.8C938.367 166.6 941.9 169.2 944.7 172.6C947.567 175.933 949.733 179.967 951.2 184.7C952.667 189.433 953.4 194.667 953.4 200.4V264.9H935.5V200.4C935.5 192.733 933.733 186.8 930.2 182.6C926.733 178.333 921.433 176.2 914.3 176.2C909.033 176.2 904.1 177.467 899.5 180C894.967 182.533 890.767 185.967 886.9 190.3V264.9H869V163.6H879.7C882.233 163.6 883.8 164.833 884.4 167.3L885.8 178.3Z" fill="#059669"/>
<path d="M809.4 161C816.8 161 823.467 162.233 829.4 164.7C835.333 167.167 840.4 170.667 844.6 175.2C848.8 179.733 852 185.233 854.2 191.7C856.467 198.1 857.6 205.267 857.6 213.2C857.6 221.2 856.467 228.4 854.2 234.8C852 241.2 848.8 246.667 844.6 251.2C840.4 255.733 835.333 259.233 829.4 261.7C823.467 264.1 816.8 265.3 809.4 265.3C801.933 265.3 795.2 264.1 789.2 261.7C783.267 259.233 778.2 255.733 774 251.2C769.8 246.667 766.567 241.2 764.3 234.8C762.1 228.4 761 221.2 761 213.2C761 205.267 762.1 198.1 764.3 191.7C766.567 185.233 769.8 179.733 774 175.2C778.2 170.667 783.267 167.167 789.2 164.7C795.2 162.233 801.933 161 809.4 161ZM809.4 251.4C819.4 251.4 826.867 248.067 831.8 241.4C836.733 234.667 839.2 225.3 839.2 213.3C839.2 201.233 836.733 191.833 831.8 185.1C826.867 178.367 819.4 175 809.4 175C804.333 175 799.9 175.867 796.1 177.6C792.367 179.333 789.233 181.833 786.7 185.1C784.233 188.367 782.367 192.4 781.1 197.2C779.9 201.933 779.3 207.3 779.3 213.3C779.3 225.3 781.767 234.667 786.7 241.4C791.7 248.067 799.267 251.4 809.4 251.4Z" fill="#059669"/>
<path d="M742 142C741.4 143 740.733 143.767 740 144.3C739.333 144.767 738.5 145 737.5 145C736.367 145 735.033 144.433 733.5 143.3C731.967 142.167 730.033 140.933 727.7 139.6C725.433 138.2 722.667 136.933 719.4 135.8C716.2 134.667 712.3 134.1 707.7 134.1C703.367 134.1 699.533 134.7 696.2 135.9C692.933 137.033 690.167 138.6 687.9 140.6C685.7 142.6 684.033 144.967 682.9 147.7C681.767 150.367 681.2 153.267 681.2 156.4C681.2 160.4 682.167 163.733 684.1 166.4C686.1 169 688.7 171.233 691.9 173.1C695.167 174.967 698.833 176.6 702.9 178C707.033 179.333 711.233 180.733 715.5 182.2C719.833 183.667 724.033 185.333 728.1 187.2C732.233 189 735.9 191.3 739.1 194.1C742.367 196.9 744.967 200.333 746.9 204.4C748.9 208.467 749.9 213.467 749.9 219.4C749.9 225.667 748.833 231.567 746.7 237.1C744.567 242.567 741.433 247.333 737.3 251.4C733.233 255.467 728.2 258.667 722.2 261C716.267 263.333 709.5 264.5 701.9 264.5C692.567 264.5 684.1 262.833 676.5 259.5C668.9 256.1 662.4 251.533 657 245.8L662.6 236.6C663.133 235.867 663.767 235.267 664.5 234.8C665.3 234.267 666.167 234 667.1 234C667.967 234 668.933 234.367 670 235.1C671.133 235.767 672.4 236.633 673.8 237.7C675.2 238.767 676.8 239.933 678.6 241.2C680.4 242.467 682.433 243.633 684.7 244.7C687.033 245.767 689.667 246.667 692.6 247.4C695.533 248.067 698.833 248.4 702.5 248.4C707.1 248.4 711.2 247.767 714.8 246.5C718.4 245.233 721.433 243.467 723.9 241.2C726.433 238.867 728.367 236.1 729.7 232.9C731.033 229.7 731.7 226.133 731.7 222.2C731.7 217.867 730.7 214.333 728.7 211.6C726.767 208.8 724.2 206.467 721 204.6C717.8 202.733 714.133 201.167 710 199.9C705.867 198.567 701.667 197.233 697.4 195.9C693.133 194.5 688.933 192.9 684.8 191.1C680.667 189.3 677 186.967 673.8 184.1C670.6 181.233 668 177.667 666 173.4C664.067 169.067 663.1 163.733 663.1 157.4C663.1 152.333 664.067 147.433 666 142.7C668 137.967 670.867 133.767 674.6 130.1C678.4 126.433 683.033 123.5 688.5 121.3C694.033 119.1 700.367 118 707.5 118C715.5 118 722.767 119.267 729.3 121.8C735.9 124.333 741.7 128 746.7 132.8L742 142Z" fill="#059669"/>
<path d="M656.6 164L615.3 265.3H599.3L558 164H572.5C573.967 164 575.167 164.367 576.1 165.1C577.033 165.833 577.667 166.7 578 167.7L603.7 232.9C604.5 235.367 605.2 237.767 605.8 240.1C606.4 242.433 606.967 244.767 607.5 247.1C608.033 244.767 608.6 242.433 609.2 240.1C609.8 237.767 610.533 235.367 611.4 232.9L637.4 167.7C637.8 166.633 638.467 165.767 639.4 165.1C640.333 164.367 641.433 164 642.7 164H656.6Z" fill="#059669"/>
<path d="M541.2 217.5C533 217.767 526 218.433 520.2 219.5C514.467 220.5 509.767 221.833 506.1 223.5C502.5 225.167 499.867 227.133 498.2 229.4C496.6 231.667 495.8 234.2 495.8 237C495.8 239.667 496.234 241.967 497.1 243.9C497.967 245.833 499.134 247.433 500.6 248.7C502.134 249.9 503.9 250.8 505.9 251.4C507.967 251.933 510.167 252.2 512.5 252.2C515.634 252.2 518.5 251.9 521.1 251.3C523.7 250.633 526.134 249.7 528.4 248.5C530.734 247.3 532.934 245.867 535 244.2C537.134 242.533 539.2 240.633 541.2 238.5V217.5ZM483.7 176.1C489.3 170.7 495.334 166.667 501.8 164C508.267 161.333 515.434 160 523.3 160C528.967 160 534 160.933 538.4 162.8C542.8 164.667 546.5 167.267 549.5 170.6C552.5 173.933 554.767 177.967 556.3 182.7C557.834 187.433 558.6 192.633 558.6 198.3V263.1H550.7C548.967 263.1 547.634 262.833 546.7 262.3C545.767 261.7 545.034 260.567 544.5 258.9L542.5 249.3C539.834 251.767 537.234 253.967 534.7 255.9C532.167 257.767 529.5 259.367 526.7 260.7C523.9 261.967 520.9 262.933 517.7 263.6C514.567 264.333 511.067 264.7 507.2 264.7C503.267 264.7 499.567 264.167 496.1 263.1C492.634 261.967 489.6 260.3 487 258.1C484.467 255.9 482.434 253.133 480.9 249.8C479.434 246.4 478.7 242.4 478.7 237.8C478.7 233.8 479.8 229.967 482 226.3C484.2 222.567 487.767 219.267 492.7 216.4C497.634 213.533 504.067 211.2 512 209.4C519.934 207.533 529.667 206.467 541.2 206.2V198.3C541.2 190.433 539.5 184.5 536.1 180.5C532.7 176.433 527.734 174.4 521.2 174.4C516.8 174.4 513.1 174.967 510.1 176.1C507.167 177.167 504.6 178.4 502.4 179.8C500.267 181.133 498.4 182.367 496.8 183.5C495.267 184.567 493.734 185.1 492.2 185.1C491 185.1 489.967 184.8 489.1 184.2C488.234 183.533 487.5 182.733 486.9 181.8L483.7 176.1Z" fill="#059669"/>
<path d="M417.4 137.8V187.9H476.3V203.7H417.4V265.3H398V122H486.3V137.8H417.4Z" fill="#059669"/>
<circle cx="191.5" cy="191.5" r="191.5" fill="#171717"/>
<path d="M83.6546 209.219C55.4335 201.962 42.6706 213.743 47.7435 243.054C51.3719 264.018 91.6877 274.903 104.447 245.971L132.689 85.7646C134.607 74.8863 144.98 67.6225 155.858 69.5406L322.923 98.9987C333.801 100.917 341.064 111.289 339.147 122.167L310.905 282.375C298.145 311.307 257.829 300.422 254.201 279.458C249.128 250.147 261.088 238.714 289.309 245.971M132.145 112.058L303.345 144.43M122.347 144.43L196.57 157.43" stroke="#059669" stroke-width="20" stroke-linecap="round"/>
</svg>
